# Blender v2.92.0 OBJ File: ''
# www.blender.org
mtllib torus.mtl
o Torus
v 1.260115 1.655466 -0.082107
v 1.193807 1.891689 -0.060359
v 0.749905 1.775669 -0.177977
v 0.805339 1.531866 -0.221705
v 1.125617 1.463037 -0.010052
v 0.804550 1.959955 -0.510282
v 0.772261 1.462212 -0.747780
v 1.039978 1.625548 -0.729508
v 0.897665 1.901296 -0.809288
v 0.461383 1.780644 -0.619219
v 0.474205 1.530597 -0.689869
v 0.105605 1.961439 -1.061906
v 0.318241 1.535497 -1.165428
v 0.177595 1.748182 -1.275601
v 0.127533 1.891337 -0.832309
v -0.035404 1.647277 -0.756592
v -0.368837 1.459923 -0.928364
v -0.374696 1.911041 -1.119635
v -0.374985 1.515364 -1.125515
v -0.696059 1.960963 -0.699859
v -0.540693 1.531034 -0.648580
v -0.756707 1.777619 -1.011925
v -0.497269 1.788186 -0.591437
v -1.018286 1.903802 -0.591398
v -0.685356 1.643657 -0.342302
v -0.919730 1.462960 -0.581309
v -1.054218 1.638382 -0.710470
v -0.810591 1.892778 -0.210165
v -1.187474 1.519794 -0.146747
v -1.254491 1.780347 -0.086019
v -1.086124 1.959577 0.144759
v -0.838881 1.518973 0.245055
v -0.754029 1.643310 0.098061
v -0.730062 1.923492 0.562543
v -1.064305 1.473110 0.443860
v -1.164652 1.777302 0.494154
v -0.686085 1.914831 0.991084
v -0.630300 1.777528 0.438154
v -0.739314 1.637572 1.015938
v -0.163200 1.500115 0.912519
v -0.367941 1.462551 1.027653
v 0.070246 1.959605 0.981302
v -0.197566 1.646682 0.744214
v -0.156759 1.833342 0.788078
v -0.223237 1.653621 1.243720
v 0.133668 1.896071 1.186900
v 0.539638 1.782755 1.147789
v 0.312767 1.644595 0.694469
v 0.448798 1.830952 0.660621
v 0.677208 1.462144 0.846508
v 0.563383 1.527260 1.091568
v 0.715470 1.531590 0.442000
v 0.865230 1.923275 0.275931
v 0.680329 1.771527 0.346372
v 1.050688 1.785835 0.711121
v 0.905573 1.958438 0.646354
v 1.169191 1.634465 0.452058
vt 0.589341 0.790787
vt 0.450970 0.833333
vt 0.398972 0.690833
vt 0.539785 0.113537
vt 0.625228 0.322822
vt 0.503231 0.327748
vt 0.597530 0.453170
vt 0.508637 0.473949
vt 0.620013 0.613382
vt 0.509356 0.624789
vt 0.664440 0.000000
vt 0.519306 0.000000
vt 0.656085 0.126733
vt 0.727861 0.530892
vt 0.727800 0.659996
vt 0.726688 0.871154
vt 0.704131 0.389624
vt 0.756357 0.037038
vt 0.804466 0.242110
vt 0.859334 0.130228
vt 0.852899 0.536596
vt 0.801387 0.642283
vt 0.858422 0.941228
vt 0.762077 1.000000
vt 0.833304 0.000000
vt 0.905063 0.460537
vt 0.799973 0.362544
vt 0.928583 0.042461
vt 0.912902 0.318728
vt 0.958725 0.873061
vt 0.873951 0.778044
vt 0.915486 0.633233
vt 0.927026 1.000000
vt 0.976372 0.380039
vt 0.985215 0.541108
vt 0.988966 0.698626
vt 0.988234 0.166667
vt 0.063277 0.540347
vt 0.035822 0.698626
vt 0.005828 0.541108
vt 0.054677 0.144511
vt 0.070462 0.389078
vt 0.000000 0.250000
vt 0.104943 0.833333
vt 0.099715 0.950071
vt 0.004323 0.873061
vt 0.029587 1.000000
vt 0.113245 0.000000
vt 0.023392 0.044073
vt 0.150437 0.453969
vt 0.152754 0.626415
vt 0.207824 0.041013
vt 0.221755 0.166667
vt 0.196596 0.291740
vt 0.218809 0.916667
vt 0.223068 0.467103
vt 0.325018 0.400783
vt 0.360863 0.297986
vt 0.412083 0.125534
vt 0.261340 0.807406
vt 0.405846 0.540945
vt 0.320707 0.534747
vt 0.441352 0.451936
vt 0.414869 0.000000
vt 0.536271 0.955391
vt 0.650666 0.966694
vt 0.994491 0.044073
vt 1.000000 1.000000
vt 0.009245 0.380039
vt 0.321578 1.000000
vt 0.216748 1.000000
vt 0.344820 0.916667
vt 0.270393 0.613501
vt 0.318191 0.040534
vt 0.426637 0.969462
vn -0.9722 0.2179 0.0852
vn -0.2978 -0.9438 0.1437
vn 0.7557 -0.6138 -0.2286
vn 0.2822 0.9542 -0.0993
vn -0.8056 -0.2771 0.5237
vn 0.5169 -0.8197 -0.2467
vn -0.7995 -0.2009 0.5660
vn 0.5381 0.0341 -0.8422
vn 0.1235 0.9803 -0.1539
vn -0.2382 0.9223 0.3044
vn 0.4458 -0.6634 -0.6010
vn -0.1866 -0.2760 0.9429
vn -0.0849 -0.8329 0.5468
vn 0.0351 -0.9771 -0.2097
vn 0.2855 -0.8722 0.3971
vn -0.2716 0.0007 -0.9624
vn 0.3512 0.0555 0.9347
vn 0.2572 -0.2508 0.9332
vn -0.5237 -0.4487 -0.7241
vn 0.8369 -0.2496 0.4871
vn -0.4491 -0.7269 -0.5196
vn 0.5584 0.7938 0.2411
vn -0.7421 0.3554 -0.5683
vn 0.2273 -0.9013 0.3687
vn 0.7793 0.0609 0.6237
vn -0.6375 -0.7096 -0.3000
vn -0.8945 0.2782 -0.3501
vn -0.2041 0.9746 -0.0926
vn 0.1849 -0.9816 0.0484
vn 0.5025 0.8325 0.2334
vn -0.9475 -0.1826 -0.2624
vn -0.7992 0.5875 0.1268
vn 0.2353 -0.9710 0.0428
vn 0.7767 0.6209 -0.1056
vn 0.9469 -0.1418 -0.2885
vn -0.9327 -0.3313 0.1427
vn 0.7956 -0.6036 -0.0513
vn -0.7328 0.1990 0.6507
vn -0.7710 -0.3430 0.5366
vn 0.8860 0.3234 -0.3323
vn 0.5773 -0.5537 -0.6001
vn -0.3918 -0.8009 0.4528
vn 0.3454 0.7342 -0.5845
vn -0.4028 0.1581 0.9015
vn -0.3068 -0.6016 0.7375
vn 0.0069 -0.7514 0.6598
vn 0.0477 -0.9597 0.2771
vn -0.0581 -0.9830 -0.1743
vn -0.0350 0.9953 -0.0907
vn 0.4977 0.6386 0.5869
vn 0.6857 -0.4467 0.5747
vn 0.7033 0.6750 0.2231
vn -0.9722 -0.1944 -0.1305
vn -0.9715 -0.1973 -0.1316
vn 0.1898 0.9817 -0.0153
vn -0.8994 0.4279 0.0894
vn 0.0969 -0.9868 -0.1295
vn -0.1953 -0.9706 0.1408
vn -0.5186 0.7811 0.3479
vn -0.4334 0.3169 0.8436
vn 0.5232 -0.0928 -0.8471
vn 0.2584 0.7259 -0.6374
vn -0.3515 0.4834 0.8018
vn -0.2128 -0.4270 0.8789
vn 0.0102 0.7095 -0.7046
vn 0.0123 -0.9625 -0.2710
vn -0.0366 -0.4786 -0.8773
vn 0.1253 0.9522 0.2787
vn 0.1734 0.6589 0.7320
vn -0.2709 0.0225 -0.9623
vn -0.0814 0.9805 -0.1789
vn -0.4071 0.7737 -0.4854
vn -0.2670 0.9115 -0.3128
vn -0.1702 -0.9500 -0.2618
vn -0.6445 0.7556 -0.1166
vn 0.8955 0.3257 0.3032
vn 0.8864 -0.4419 0.1379
vn 0.9126 0.3831 0.1426
vn 0.1660 0.9845 -0.0564
vn -0.2465 -0.9688 -0.0252
vn -0.9431 -0.2832 0.1743
vn -0.5332 0.7933 0.2940
vn -0.1557 0.1002 -0.9827
vn -0.0579 0.9951 0.0800
vn 0.1571 -0.9634 -0.2171
vn 0.5962 0.1126 -0.7949
vn 0.5886 0.0608 -0.8062
vn 0.3841 0.4986 -0.7771
vn -0.1928 0.4839 0.8536
vn -0.0522 0.9495 0.3095
vn 0.1137 0.0650 0.9914
vn -0.0662 -0.7591 -0.6476
vn 0.1553 -0.1985 0.9677
vn 0.1069 0.9588 0.2633
vn -0.0943 0.8805 -0.4646
vn 0.5292 -0.7875 0.3160
vn -0.0742 -0.9016 -0.4261
vn 0.2777 0.8252 0.4918
vn -0.4644 0.2459 -0.8508
vn 0.6463 -0.1062 0.7557
vn -0.6629 -0.1013 -0.7419
vn -0.6989 0.4028 -0.5911
vn -0.5657 -0.3755 -0.7342
vn -0.6402 0.5158 -0.5692
vn 0.9327 0.3023 0.1966
vn -0.3629 -0.9121 -0.1909
vn -0.1932 -0.9808 -0.0266
vn 0.8343 -0.5379 0.1209
vn -0.6505 0.7553 -0.0803
usemtl None
s off
f 6/1/1 53/2/1 56/3/1
f 4/4/2 7/5/2 5/6/2
f 5/6/3 8/7/3 1/8/3
f 9/9/4 6/1/4 2/10/4
f 10/11/5 4/4/5 3/12/5
f 7/5/6 8/7/6 5/6/6
f 10/11/7 11/13/7 4/4/7
f 14/14/8 9/9/8 8/7/8
f 9/9/9 12/15/9 6/1/9
f 12/15/10 15/16/10 6/1/10
f 13/17/11 8/7/11 7/5/11
f 10/11/12 16/18/12 11/13/12
f 11/13/13 17/19/13 7/5/13
f 17/19/14 13/17/14 7/5/14
f 21/20/15 17/19/15 16/18/15
f 22/21/16 18/22/16 14/14/16
f 23/23/17 16/24/17 15/16/17
f 23/25/18 21/20/18 16/18/18
f 27/26/19 22/21/19 19/27/19
f 25/28/20 21/20/20 23/25/20
f 26/29/21 27/26/21 19/27/21
f 28/30/22 23/23/22 20/31/22
f 27/26/23 24/32/23 22/21/23
f 21/20/24 26/29/24 17/19/24
f 28/30/25 25/33/25 23/23/25
f 26/29/26 29/34/26 27/26/26
f 27/26/27 30/35/27 24/32/27
f 31/36/28 20/31/28 24/32/28
f 32/37/29 26/29/29 21/20/29
f 31/36/30 28/30/30 20/31/30
f 29/34/31 30/35/31 27/26/31
f 36/38/32 31/39/32 30/40/32
f 32/41/33 35/42/33 26/43/33
f 34/44/34 38/45/34 28/46/34
f 38/45/35 33/47/35 28/46/35
f 35/42/36 36/38/36 30/40/36
f 38/48/37 32/41/37 33/49/37
f 39/50/38 37/51/38 36/38/38
f 39/50/39 36/38/39 35/42/39
f 9/9/40 2/10/40 1/8/40 8/7/40
f 43/52/41 40/53/41 32/41/41
f 41/54/42 39/50/42 35/42/42
f 34/44/43 44/55/43 38/45/43
f 45/56/44 37/51/44 39/50/44
f 41/54/45 45/56/45 39/50/45
f 51/57/46 45/56/46 41/54/46
f 41/54/47 50/58/47 51/57/47
f 52/59/48 50/58/48 40/53/48
f 56/3/49 53/2/49 42/60/49
f 55/61/50 56/3/50 47/62/50
f 57/63/51 55/61/51 51/57/51
f 55/61/52 2/10/52 56/3/52
f 3/12/53 52/59/53 54/64/53
f 3/12/54 4/4/54 52/59/54
f 2/10/55 6/1/55 56/3/55
f 53/2/56 6/1/56 3/65/56
f 41/54/57 35/42/57 32/41/57 40/53/57
f 4/4/58 11/13/58 7/5/58
f 6/1/59 10/66/59 3/65/59
f 6/1/60 15/16/60 10/66/60
f 13/17/61 14/14/61 8/7/61
f 14/14/62 12/15/62 9/9/62
f 15/16/63 16/24/63 10/66/63
f 16/18/64 17/19/64 11/13/64
f 14/14/65 18/22/65 12/15/65
f 17/19/66 19/27/66 13/17/66
f 13/17/67 19/27/67 14/14/67
f 12/15/68 20/31/68 15/16/68
f 20/31/69 23/23/69 15/16/69
f 19/27/70 22/21/70 14/14/70
f 18/22/71 20/31/71 12/15/71
f 22/21/72 24/32/72 18/22/72
f 18/22/73 24/32/73 20/31/73
f 17/19/74 26/29/74 19/27/74
f 30/35/75 31/36/75 24/32/75
f 25/28/76 32/37/76 21/20/76
f 25/28/77 33/67/77 32/37/77
f 28/30/78 33/68/78 25/33/78
f 31/39/79 34/44/79 28/46/79
f 26/43/80 35/42/80 29/69/80
f 29/69/81 35/42/81 30/40/81
f 36/38/82 37/51/82 31/39/82
f 48/70/83 43/71/83 44/55/83 49/72/83
f 37/51/84 42/60/84 31/39/84
f 31/39/85 42/60/85 34/44/85
f 38/48/86 43/52/86 32/41/86
f 44/55/87 43/71/87 38/45/87
f 34/44/88 42/60/88 44/55/88
f 45/56/89 46/73/89 37/51/89
f 37/51/90 46/73/90 42/60/90
f 45/56/91 47/62/91 46/73/91
f 43/52/92 48/74/92 40/53/92
f 51/57/93 47/62/93 45/56/93
f 46/73/94 56/3/94 42/60/94
f 42/60/95 49/72/95 44/55/95
f 57/63/96 51/57/96 50/58/96 5/6/96
f 40/53/97 50/58/97 41/54/97
f 47/62/98 56/3/98 46/73/98
f 48/74/99 52/59/99 40/53/99
f 51/57/100 55/61/100 47/62/100
f 42/60/101 53/2/101 49/72/101
f 49/72/102 54/75/102 48/70/102
f 54/64/103 52/59/103 48/74/103
f 53/2/104 54/75/104 49/72/104
f 2/10/105 55/61/105 57/63/105 1/8/105
f 52/59/106 5/6/106 50/58/106
f 52/59/107 4/4/107 5/6/107
f 5/6/108 1/8/108 57/63/108
f 53/2/109 3/65/109 54/75/109
